# File created by Blade
# Date/Time:  Thu Jan 22 19:08:58 2015
# Frame Rate: 120.000 fps
#------------------------------------------------------
:FULLY-SPECIFIED
:DEGREES
2746
root -2.485289 33.101431 -0.506723 7.958102 -1.302840 2.526430
RightUpLeg -1.355930 -10.135645 -2.908860
RightLeg -1.163563 -0.000000 0.000000
RightFoot -10.895488 -4.779742 5.296106
RightToeBase 5.021804 -0.000000 -0.000000
LeftUpLeg -1.636755 5.225238 3.035091
LeftLeg 0.273748 -0.000000 -0.000000
LeftFoot -9.300705 0.332864 -11.388837
LeftToeBase 8.233576 -0.000000 -0.000000
Spine -9.881816 -1.190376 -1.875689
RightShoulder -14.460187 -10.787526 -28.285478
RightArm 28.067555 24.127183 31.482773
RightForeArm -4.831102 -0.000000 10.810892
RightHand 10.292557 -0.000000 13.225921
RightHandThumb1 -24.326973 -0.000000 -32.862282
LeftShoulder -20.359150 3.953446 31.318408
LeftArm 20.814583 -22.188295 -30.468388
LeftForeArm 19.593008 -0.000000 0.879071
LeftHand -2.006869 -0.000000 -11.667181
LeftHandThumb1 -26.253704 0.000000 33.147579
Head -0.318179 4.662185 -0.386537
2747
root -2.484946 33.102235 -0.510117 7.950518 -1.271616 2.527567
RightUpLeg -1.367055 -10.190236 -2.905727
RightLeg -1.123352 -0.000000 0.000000
RightFoot -10.912382 -4.763973 5.277456
RightToeBase 4.919639 -0.000000 -0.000000
LeftUpLeg -1.645884 5.195099 3.038218
LeftLeg 0.282728 -0.000000 -0.000000
LeftFoot -9.291546 0.329943 -11.394976
LeftToeBase 8.213833 -0.000000 -0.000000
Spine -9.902238 -1.205602 -1.858703
RightShoulder -14.477514 -10.972769 -28.183485
RightArm 28.260097 24.106085 31.558465
RightForeArm -4.880370 -0.000000 10.719128
RightHand 10.271582 -0.000000 13.258485
RightHandThumb1 -24.326973 -0.000000 -32.862282
LeftShoulder -20.335617 3.931707 31.253661
LeftArm 20.843950 -21.960287 -30.582033
LeftForeArm 19.895961 -0.000000 0.873798
LeftHand -1.881801 -0.000000 -11.869822
LeftHandThumb1 -26.253704 0.000000 33.147579
Head -0.277203 4.672323 -0.403099
2748
root -2.484183 33.102164 -0.512932 7.940326 -1.245536 2.532953
RightUpLeg -1.364040 -10.203428 -2.911389
RightLeg -1.103361 -0.000000 0.000000
RightFoot -10.936261 -4.772970 5.303513
RightToeBase 4.845712 -0.000000 -0.000000
LeftUpLeg -1.652872 5.185356 3.035001
LeftLeg 0.295320 -0.000000 -0.000000
LeftFoot -9.290138 0.319139 -11.372809
LeftToeBase 8.202766 -0.000000 -0.000000
Spine -9.925540 -1.206772 -1.862382
RightShoulder -14.445000 -10.904267 -28.179180
RightArm 28.242635 23.938813 31.637970
RightForeArm -5.079381 0.000000 10.653753
RightHand 10.349057 -0.000000 13.286016
RightHandThumb1 -24.326973 -0.000000 -32.862282
LeftShoulder -20.287779 3.923173 31.230039
LeftArm 20.873215 -21.751730 -30.740075
LeftForeArm 19.991803 -0.000000 0.882945
LeftHand -1.707184 -0.000000 -11.945410
LeftHandThumb1 -26.253704 0.000000 33.147579
Head -0.225064 4.679410 -0.390498
2749
root -2.483830 33.102730 -0.517680 7.935302 -1.212672 2.535662
RightUpLeg -1.367433 -10.229135 -2.912937
RightLeg -1.087428 -0.000000 0.000000
RightFoot -10.947874 -4.775316 5.311160
RightToeBase 4.794097 -0.000000 -0.000000
LeftUpLeg -1.672130 5.149361 3.037096
LeftLeg 0.317066 -0.000000 -0.000000
LeftFoot -9.292452 0.315806 -11.386995
LeftToeBase 8.203425 -0.000000 -0.000000
Spine -9.951135 -1.215282 -1.854073
RightShoulder -14.452615 -10.914826 -28.135397
RightArm 28.328591 23.794916 31.693080
RightForeArm -5.211661 -0.000000 10.571388
RightHand 10.343444 -0.000000 13.314930
RightHandThumb1 -24.326973 -0.000000 -32.862282
LeftShoulder -20.230540 3.905116 31.192083
LeftArm 20.908325 -21.642655 -30.892417
LeftForeArm 20.243762 0.000000 0.850725
LeftHand -1.640317 -0.000000 -12.089975
LeftHandThumb1 -26.253704 0.000000 33.147579
Head -0.189111 4.677850 -0.407901
2750
root -2.483674 33.103336 -0.522751 7.933729 -1.187640 2.536086
RightUpLeg -1.380258 -10.248102 -2.911905
RightLeg -1.062219 -0.000000 0.000000
RightFoot -10.965128 -4.769481 5.356129
RightToeBase 4.707546 -0.000000 -0.000000
LeftUpLeg -1.697804 5.132631 3.038485
LeftLeg 0.342903 -0.000000 -0.000000
LeftFoot -9.292142 0.306119 -11.375609
LeftToeBase 8.239592 -0.000000 -0.000000
Spine -9.973321 -1.228837 -1.851197
RightShoulder -14.433982 -10.871821 -28.098268
RightArm 28.359101 23.638965 31.721064
RightForeArm -5.365459 -0.000000 10.512025
RightHand 10.309144 -0.000000 13.346190
RightHandThumb1 -24.326973 -0.000000 -32.862282
LeftShoulder -20.193039 3.855278 31.172143
LeftArm 20.926498 -21.453474 -31.000749
LeftForeArm 20.462323 -0.000000 0.831234
LeftHand -1.529375 0.000000 -12.253152
LeftHandThumb1 -26.253704 0.000000 33.147579
Head -0.165911 4.666072 -0.410728
2751
root -2.482971 33.103524 -0.527396 7.925391 -1.161322 2.543244
RightUpLeg -1.381483 -10.288114 -2.919883
RightLeg -1.044098 -0.000000 0.000000
RightFoot -10.982172 -4.747832 5.358861
RightToeBase 4.608339 -0.000000 -0.000000
LeftUpLeg -1.719784 5.119680 3.033134
LeftLeg 0.378241 -0.000000 -0.000000
LeftFoot -9.295755 0.290203 -11.372652
LeftToeBase 8.220613 -0.000000 -0.000000
Spine -9.989430 -1.253284 -1.853872
RightShoulder -14.392649 -10.853347 -28.098415
RightArm 28.410779 23.598324 31.853941
RightForeArm -5.607235 0.000000 10.458807
RightHand 10.442857 -0.000000 13.546525
RightHandThumb1 -24.326973 -0.000000 -32.862282
LeftShoulder -20.161921 3.844339 31.145444
LeftArm 20.977213 -21.227332 -31.085197
LeftForeArm 20.454684 -0.000000 0.778243
LeftHand -1.553011 -0.000000 -12.319488
LeftHandThumb1 -26.253704 0.000000 33.147579
Head -0.142066 4.672321 -0.416699
2752
root -2.483083 33.103750 -0.531840 7.917512 -1.137335 2.543215
RightUpLeg -1.381832 -10.317530 -2.918895
RightLeg -1.028246 -0.000000 0.000000
RightFoot -10.997113 -4.733588 5.379478
RightToeBase 4.522263 -0.000000 -0.000000
LeftUpLeg -1.739590 5.091712 3.037125
LeftLeg 0.413726 -0.000000 -0.000000
LeftFoot -9.311315 0.289058 -11.383950
LeftToeBase 8.220367 -0.000000 -0.000000
Spine -10.003457 -1.274451 -1.855026
RightShoulder -14.364312 -10.825001 -28.074556
RightArm 28.467915 23.500415 31.900985
RightForeArm -5.778321 -0.000000 10.402498
RightHand 10.311422 -0.000000 13.677215
RightHandThumb1 -24.326973 -0.000000 -32.862282
LeftShoulder -20.142836 3.831930 31.133946
LeftArm 21.067621 -21.194175 -31.239779
LeftForeArm 20.657881 -0.000000 0.737573
LeftHand -1.427417 0.000000 -12.506716
LeftHandThumb1 -26.253704 0.000000 33.147579
Head -0.130640 4.655299 -0.407344
2753
root -2.483302 33.104230 -0.536487 7.910110 -1.120947 2.541953
RightUpLeg -1.390660 -10.353566 -2.914407
RightLeg -1.002774 -0.000000 0.000000
RightFoot -11.003862 -4.718670 5.375670
RightToeBase 4.367151 -0.000000 -0.000000
LeftUpLeg -1.757027 5.090912 3.040575
LeftLeg 0.439894 -0.000000 -0.000000
LeftFoot -9.314638 0.270618 -11.396309
LeftToeBase 8.232662 -0.000000 -0.000000
Spine -10.021403 -1.292114 -1.848579
RightShoulder -14.319242 -10.852976 -28.074471
RightArm 28.552731 23.469898 31.996145
RightForeArm -5.956068 -0.000000 10.334009
RightHand 10.257910 -0.000000 13.502843
RightHandThumb1 -24.326973 -0.000000 -32.862282
LeftShoulder -20.113345 3.817603 31.103631
LeftArm 21.126992 -21.133745 -31.338620
LeftForeArm 20.892356 -0.000000 0.711572
LeftHand -1.381421 -0.000000 -12.496546
LeftHandThumb1 -26.253704 0.000000 33.147579
Head -0.115772 4.655151 -0.417217
2754
root -2.481328 33.104216 -0.540331 7.896660 -1.117411 2.555615
RightUpLeg -1.392897 -10.362977 -2.932056
RightLeg -0.976686 -0.000000 0.000000
RightFoot -11.044125 -4.718715 5.414091
RightToeBase 4.325271 -0.000000 -0.000000
LeftUpLeg -1.760361 5.088256 3.014397
LeftLeg 0.441471 -0.000000 -0.000000
LeftFoot -9.316900 0.308525 -11.449693
LeftToeBase 8.293387 -0.000000 -0.000000
Spine -10.027282 -1.294810 -1.865591
RightShoulder -14.294715 -10.860863 -28.069291
RightArm 28.633368 23.413978 32.060872
RightForeArm -5.933275 -0.000000 10.272156
RightHand 10.265758 -0.000000 13.716260
RightHandThumb1 -24.326973 -0.000000 -32.862282
LeftShoulder -20.089626 3.806927 31.081851
LeftArm 21.213082 -21.032351 -31.414846
LeftForeArm 20.912115 -0.000000 0.693224
LeftHand -1.409316 -0.000000 -12.568715
LeftHandThumb1 -26.253704 0.000000 33.147579
Head -0.129761 4.667463 -0.405120
2755
root -2.481814 33.103758 -0.544513 7.887343 -1.113751 2.554926
RightUpLeg -1.401081 -10.389908 -2.931517
RightLeg -0.950089 -0.000000 0.000000
RightFoot -11.064343 -4.693261 5.390619
RightToeBase 4.196769 -0.000000 -0.000000
LeftUpLeg -1.770907 5.058699 3.028192
LeftLeg 0.480541 -0.000000 -0.000000
LeftFoot -9.332444 0.292672 -11.374422
LeftToeBase 8.256783 -0.000000 -0.000000
Spine -10.037514 -1.297508 -1.866312
RightShoulder -14.254821 -10.805636 -28.084212
RightArm 28.657182 23.334282 32.093310
RightForeArm -6.003554 -0.000000 10.238304
RightHand 10.333677 -0.000000 13.868495
RightHandThumb1 -24.326973 -0.000000 -32.862282
LeftShoulder -20.056886 3.768707 31.058415
LeftArm 21.276034 -20.962758 -31.461969
LeftForeArm 21.016682 -0.000000 0.680122
LeftHand -1.459572 -0.000000 -12.521645
LeftHandThumb1 -26.253704 0.000000 33.147579
Head -0.168736 4.781762 -0.382063
2756
root -2.483334 33.104328 -0.548978 7.875949 -1.116116 2.548088
RightUpLeg -1.416008 -10.385851 -2.925496
RightLeg -0.906864 -0.000000 0.000000
RightFoot -11.085233 -4.671411 5.444994
RightToeBase 4.127412 -0.000000 -0.000000
LeftUpLeg -1.777485 5.055982 3.039747
LeftLeg 0.505922 -0.000000 -0.000000
LeftFoot -9.335563 0.287773 -11.375425
LeftToeBase 8.256664 -0.000000 -0.000000
Spine -10.045862 -1.304787 -1.866335
RightShoulder -14.227812 -10.855364 -28.074000
RightArm 28.779938 23.345375 32.163905
RightForeArm -6.014295 -0.000000 10.211167
RightHand 10.284214 -0.000000 13.912003
RightHandThumb1 -24.326973 -0.000000 -32.862282
LeftShoulder -20.043859 3.757804 31.037518
LeftArm 21.377572 -20.947327 -31.523098
LeftForeArm 21.106683 -0.000000 0.662051
LeftHand -1.462634 -0.000000 -12.547804
LeftHandThumb1 -26.253704 0.000000 33.147579
Head -0.190684 4.808116 -0.365995
2757
root -2.484340 33.104651 -0.553273 7.864068 -1.136133 2.544425
RightUpLeg -1.425799 -10.351869 -2.925856
RightLeg -0.879073 -0.000000 0.000000
RightFoot -11.051945 -4.718932 5.345242
RightToeBase 3.832915 -0.000000 -0.000000
LeftUpLeg -1.777722 5.068958 3.043187
LeftLeg 0.520854 -0.000000 -0.000000
LeftFoot -9.338247 0.289703 -11.391683
LeftToeBase 8.252234 -0.000000 -0.000000
Spine -10.052925 -1.281519 -1.874366
RightShoulder -14.201677 -10.839082 -28.073999
RightArm 28.833814 23.284197 32.175553
RightForeArm -5.973676 -0.000000 10.220889
RightHand 10.183038 -0.000000 13.889454
RightHandThumb1 -24.326973 -0.000000 -32.862282
LeftShoulder -20.006703 3.720021 31.037795
LeftArm 21.449055 -20.859689 -31.554880
LeftForeArm 21.014327 -0.000000 0.673453
LeftHand -1.486000 -0.000000 -12.433107
LeftHandThumb1 -26.253704 0.000000 33.147579
Head -0.207964 4.797724 -0.349453
